<?xml version="1.0" standalone="no"?>
<!DOCTYPE svg PUBLIC "-//W3C//DTD SVG 20010904//EN"
 "http://www.w3.org/TR/2001/REC-SVG-20010904/DTD/svg10.dtd">
<svg version="1.0" xmlns="http://www.w3.org/2000/svg"
 width="150.000000pt" height="150.000000pt" viewBox="0 0 150.000000 150.000000"
 preserveAspectRatio="xMidYMid meet">

<g transform="translate(0.000000,150.000000) scale(0.100000,-0.100000)"
fill="#000000" stroke="none">
<path d="M785 1357 c-48 -48 -78 -163 -91 -348 -11 -163 -33 -197 -52 -81 -6
37 -16 110 -22 162 -18 174 -53 250 -115 250 -77 0 -90 -67 -58 -313 41 -313
11 -320 -93 -23 -29 84 -90 136 -130 108 -22 -16 -44 -58 -44 -87 0 -16 14
-68 31 -115 67 -186 90 -269 100 -362 22 -215 121 -416 213 -434 57 -10 128
42 82 59 -8 3 -20 -1 -26 -9 -17 -20 -53 -17 -83 6 -61 48 -131 228 -147 381
-11 106 -29 175 -89 336 -44 120 -48 149 -28 177 29 40 66 -14 129 -192 46
-131 80 -160 129 -109 24 25 23 58 -6 272 -15 116 -19 223 -9 249 3 9 17 16
29 16 35 0 63 -85 81 -244 15 -140 26 -206 38 -224 12 -20 51 -13 76 13 20 22
24 39 31 137 14 191 42 308 82 346 23 22 24 22 41 3 22 -24 19 -120 -9 -355
l-20 -158 24 -19 c43 -35 59 -16 155 193 69 149 101 194 134 184 41 -13 30
-57 -76 -306 -66 -153 -67 -156 -67 -246 0 -143 34 -160 146 -71 116 92 146
110 174 103 55 -14 41 -64 -33 -117 -66 -48 -166 -143 -221 -213 -28 -34 -80
-82 -120 -110 -64 -44 -76 -48 -112 -43 -47 6 -92 44 -108 88 -10 28 -9 29 25
29 l34 0 0 75 0 75 75 0 75 0 0 110 0 110 -75 0 -75 0 0 75 0 75 -110 0 -110
0 0 -75 0 -75 -75 0 -75 0 0 -110 0 -110 75 0 75 0 0 -75 0 -74 56 -3 c55 -3
56 -4 69 -41 7 -21 21 -48 32 -59 25 -29 91 -58 134 -58 52 0 165 85 255 190
39 47 103 109 140 139 104 83 132 111 139 142 9 41 -2 67 -35 84 -52 27 -74
19 -185 -65 -58 -44 -110 -80 -115 -80 -15 0 -23 46 -18 108 3 41 24 104 76
229 105 251 114 307 52 333 -68 28 -111 -20 -206 -231 -30 -68 -62 -131 -71
-139 -14 -14 -15 -8 -9 60 4 41 14 120 22 174 7 55 14 135 14 179 0 74 -2 80
-29 108 -38 37 -55 37 -96 -4z m-35 -652 l0 -75 75 0 75 0 0 -80 0 -80 -75 0
-75 0 0 -75 0 -75 -80 0 -80 0 0 75 0 75 -75 0 -75 0 0 80 0 80 75 0 75 0 0
75 0 75 80 0 80 0 0 -75z"/>
</g>
</svg>
